<svg xmlns="http://www.w3.org/2000/svg" width="200" height="200" viewBox="0 0 200 200">
  <defs>
    <radialGradient id="bg" cx="30%" cy="28%" r="85%">
      <stop offset="0%" stop-color="#FCE8DC" />
      <stop offset="100%" stop-color="#F3B494" />
    </radialGradient>
  </defs>
  <circle cx="100" cy="100" r="96" fill="url(#bg)" />
  <g fill="#E18638" opacity="0.45">
    <rect x="52" y="56" width="26" height="26" rx="6" />
    <rect x="87" y="56" width="26" height="26" rx="6" />
    <rect x="122" y="56" width="26" height="26" rx="6" />
    <rect x="52" y="91" width="26" height="26" rx="6" />
    <rect x="87" y="91" width="26" height="26" rx="6" />
    <rect x="122" y="91" width="26" height="26" rx="6" />
  </g>
  <g fill="#E18638">
    <rect x="52" y="126" width="26" height="26" rx="6" opacity="0.45" />
    <rect x="87" y="126" width="26" height="26" rx="6" opacity="0.45" />
    <rect x="122" y="126" width="26" height="26" rx="6" opacity="0.25" />
    <path d="M132 114c8 0 14 6 14 14v22c0 4-3 7-7 7h-14c-4 0-7-3-7-7v-12c0-2 1-4 3-6l10-10c1-1 1-2 1-3v-5z" opacity="0.9" />
    <circle cx="134" cy="108" r="8" />
  </g>
</svg>
